<?xml version="1.0" encoding="utf-8"?>
<!-- Generator: Adobe Illustrator 16.0.0, SVG Export Plug-In . SVG Version: 6.00 Build 0)  -->
<!DOCTYPE svg PUBLIC "-//W3C//DTD SVG 1.1 Basic//EN" "http://www.w3.org/Graphics/SVG/1.1/DTD/svg11-basic.dtd">
<svg version="1.1" baseProfile="basic" id="Layer_1"
	 xmlns="http://www.w3.org/2000/svg" xmlns:xlink="http://www.w3.org/1999/xlink" x="0px" y="0px" width="302.9px"
	 height="90.755px" viewBox="0 0 302.9 90.755" xml:space="preserve">
<polygon fill="#FBAE17" points="62.194,29.618 95.1,34.047 71.569,57.472 77.526,90.137 47.976,74.996 18.75,90.755 24.019,57.972 
	0,35.047 32.806,29.927 47.187,0 "/>
<polygon fill="#FBAE17" points="165.993,29.618 198.899,34.047 175.368,57.472 181.325,90.137 151.775,74.997 122.55,90.754 
	127.818,57.972 103.8,35.047 136.606,29.927 150.987,0 "/>
<polygon fill="#999999" points="269.994,29.618 302.9,34.047 279.369,57.472 285.326,90.137 255.776,74.997 226.551,90.754 
	231.819,57.972 207.8,35.047 240.606,29.927 254.987,0 "/>
</svg>
